<svg xmlns="http://www.w3.org/2000/svg" width="1400" height="650" viewBox="0 0 1400 650">
<defs><linearGradient id="sky" x2="0" y2="1"><stop stop-color="#101d24"/><stop offset="1" stop-color="#405a49"/></linearGradient><linearGradient id="grass" x2="0" y2="1"><stop stop-color="#203a2b"/><stop offset="1" stop-color="#111e1a"/></linearGradient><radialGradient id="light"><stop stop-color="#edffc1" stop-opacity=".6"/><stop offset="1" stop-color="#efffc1" stop-opacity="0"/></radialGradient><pattern id="seats" width="18" height="13" patternUnits="userSpaceOnUse"><rect width="5" height="3" x="4" y="4" fill="#749179" opacity=".35"/></pattern><filter id="blur"><feGaussianBlur stdDeviation="20"/></filter><linearGradient id="fade"><stop stop-color="#11181d"/><stop offset=".6" stop-color="#11181d" stop-opacity=".2"/><stop offset="1" stop-color="#11181d" stop-opacity="0"/></linearGradient></defs>
<path fill="url(#sky)" d="M0 0h1400v650H0z"/><ellipse cx="920" cy="194" rx="400" ry="180" fill="url(#light)"/>
<path d="M0 180Q700 390 1400 165v255H0z" fill="#152021"/><path d="M0 185Q700 395 1400 170v235H0z" fill="url(#seats)"/>
<g fill="none" stroke="#566957" opacity=".5"><path d="M0 220Q700 405 1400 207"/><path d="M0 245Q700 418 1400 239"/><path d="M0 275Q700 430 1400 272"/><path d="M0 310Q700 447 1400 310"/></g>
<path d="M0 410Q700 375 1400 410v240H0z" fill="url(#grass)"/><g stroke="#acbfa1" fill="none" opacity=".25"><path d="m700 405-680 245m730-245-340 245m370-245v245m30-245 350 245m-320-245 680 245M0 445h1400M0 503h1400M0 590h1400"/></g>
<g fill="#efffd7"><path d="M252 87h124v8H252zM1060 65h130v8h-130z"/><g opacity=".18" filter="url(#blur)"><path d="m252 87-40 340h280L376 87zm808-22-175 350h380l-75-350z"/></g></g>
<g stroke="#45564b" stroke-width="5"><path d="M314 96v235M1125 74v245"/></g>
<g transform="translate(956 270)"><ellipse cx="1" cy="334" rx="115" ry="14" fill="#050c0b" opacity=".5"/><path d="m-31 189-16 103-22 36 27 8 25-31 24-85 10 84 16 30 30-7-20-42-3-96z" fill="#182125"/><path d="m-34 64-34 17-20 54 18 52 15-9-7-45 22-26-3 88 90 0-6-95 25 39-10 41 16 12 19-54-24-52-38-23z" fill="#657565"/><path d="m-36 69 24-13h36l20 13-13 12h-58z" fill="#455643"/><path d="M-25 23q-2-36 31-36 33 0 33 34l-6 28-18 13-30-12z" fill="#a9b899"/><path d="M-23 23h62l-5 17h-58z" fill="#263c36"/><path d="M-13 48h43M-20 37l6 17m44-16-3 17" stroke="#82927e" fill="none" stroke-width="3"/><path d="M-7 95h18v66H-7zM-14 95h24v12h-24z" fill="#d9e2cb"/><path d="M-46 90h-16m104 0h17" stroke="#d4f66a" stroke-width="5"/><ellipse cx="-69" cy="171" rx="14" ry="23" transform="rotate(-25 -69 171)" fill="#644d34"/><path d="m-73 154 8 25" stroke="#b5ae87" stroke-width="2"/></g>
<path fill="url(#fade)" d="M0 0h1400v650H0z"/>
</svg>
